<?xml version="1.0" encoding="iso-8859-1"?>
<!-- Generator: Adobe Illustrator 16.0.0, SVG Export Plug-In . SVG Version: 6.00 Build 0)  -->
<!DOCTYPE svg PUBLIC "-//W3C//DTD SVG 1.1//EN" "http://www.w3.org/Graphics/SVG/1.1/DTD/svg11.dtd">
<svg version="1.1" id="Capa_1" xmlns="http://www.w3.org/2000/svg" xmlns:xlink="http://www.w3.org/1999/xlink" x="0px" y="0px"
	 width="44.5px" height="44.5px" viewBox="0 0 44.5 44.5" style="enable-background:new 0 0 44.5 44.5;" xml:space="preserve">
<g>
	<path d="M7.928,30.5c-3.859,0-7,3.141-7,7s3.141,7,7,7c3.859,0,7-3.141,7-7S11.787,30.5,7.928,30.5z M7.928,40.5
		c-1.654,0-3-1.346-3-3s1.346-3,3-3c1.654,0,3,1.346,3,3S9.582,40.5,7.928,40.5z M43.572,37.5c0,2.209-1.791,4-4,4H20.281
		c-2.209,0-4-1.791-4-4s1.791-4,4-4h19.291C41.781,33.5,43.572,35.291,43.572,37.5z M14.928,22.25c0,3.859-3.141,7-7,7
		c-3.859,0-7-3.141-7-7c0-3.859,3.141-7,7-7C11.787,15.25,14.928,18.391,14.928,22.25z M43.572,22.25c0,2.209-1.791,4-4,4H20.281
		c-2.209,0-4-1.791-4-4s1.791-4,4-4h19.291C41.781,18.25,43.572,20.041,43.572,22.25z M7.928,0c-3.859,0-7,3.141-7,7s3.141,7,7,7
		c3.859,0,7-3.141,7-7S11.787,0,7.928,0z M7.928,10c-1.654,0-3-1.346-3-3s1.346-3,3-3c1.654,0,3,1.346,3,3S9.582,10,7.928,10z
		 M16.281,7c0-2.209,1.791-4,4-4h19.291c2.209,0,4,1.791,4,4s-1.791,4-4,4H20.281C18.072,11,16.281,9.209,16.281,7z"/>
</g>
<g>
</g>
<g>
</g>
<g>
</g>
<g>
</g>
<g>
</g>
<g>
</g>
<g>
</g>
<g>
</g>
<g>
</g>
<g>
</g>
<g>
</g>
<g>
</g>
<g>
</g>
<g>
</g>
<g>
</g>
</svg>
